<svg xmlns="http://www.w3.org/2000/svg" xml:space="preserve" style="enable-background:new 0 0 64 64" viewBox="0 0 64 64"><circle cx="32" cy="32" r="29" fill="#fff"/><path d="M4 32c0-10.7 6-20 14.9-24.7L17 3.7C6.9 9.1 0 19.7 0 32c0 5.6 1.4 10.8 3.9 15.4L.1 61.5c-.2.7 0 1.4.5 1.9s1.2.7 1.9.5l14.1-3.8C21.2 62.6 26.4 64 32 64c6.2 0 12.1-1.8 17-4.9 9-5.7 13-15.7 13-27.1h-2v.4C59.8 47.5 47.3 52 32 52 16.6 52 4.2 47.5 4 32.3V32z" fill="#acbdc5"/><path d="m25.8 20.5 2.4 5.8c.1.3.1.7-.1 1l-1.7 2.1c-.2.3-.3.7-.1 1 .5.9 1.6 2.8 3.5 4.6 1.9 1.7 3.7 2.7 4.7 3.2.4.2.9 0 1.1-.3l1.9-2.6c.3-.4.8-.5 1.3-.3l4.7 2.4c.3.2.5.5.5.9v1c0 2.7-2.1 4.8-4.8 4.8-1.6 0-7.2-.9-12.4-6C21.6 32.9 20 27.7 20 26v-1c0-2.8 2.3-5 5-5 .4 0 .7.2.8.5zM32 54c12.2 0 22-9.8 22-22s-9.8-22-22-22-22 9.8-22 22 9.8 22 22 22z" fill-rule="evenodd" clip-rule="evenodd" fill="#cce490"/><path d="M12 32c0-11 9-20 20-20s20 9 20 20-9 14-20 14-20-3-20-14zM32 8C18.7 8 8 18.7 8 32c0 5.1 1.6 9.9 4.3 13.8L10 54l8.2-2.3C22.1 54.4 26.9 56 32 56c13.3 0 24-10.7 24-24S45.3 8 32 8z" fill-rule="evenodd" clip-rule="evenodd" fill="#2cb441"/><path d="M16 4.3C23.3 0 32.1-1.1 40.3 1.1S55.5 8.7 59.7 16c4.2 7.3 5.4 16.1 3.2 24.3S55.3 55.5 48 59.7l-2-3.5c6.4-3.7 11.1-9.8 13-17s1-14.8-2.8-21.2-9.8-11.1-17-13C32.1 3 24.4 4 18 7.8l-2-3.5z" fill-rule="evenodd" clip-rule="evenodd" fill="#314a52"/></svg>