<svg xmlns="http://www.w3.org/2000/svg" xml:space="preserve" id="Layer_1" style="enable-background:new 0 0 64 64" version="1.1" viewBox="0 0 64 64"><style>.st3{fill:#fff}.st5{opacity:.1;fill:#231f20}</style><circle cx="32" cy="32" r="32" style="fill:#eb5151"/><circle cx="32" cy="32" r="24" style="fill:#facc20"/><path d="m44.8 21.9-1.8.6-1.4 4.1-1.4-4.1-4.1-1.4 4.1-1.4.5-1.5c-2.5-1.6-5.6-2.6-8.8-2.6-9 0-16.3 7.3-16.3 16.3S23 48.3 32 48.3 48.3 41 48.3 32c0-3.8-1.4-7.3-3.5-10.1z" style="fill:#fdef34"/><path d="M37.8 34.3c-.2-.6-1-2.5-5-3.3v-4.9c1 .3 1.6 1 1.9 2 .2.8.7 1.2 1.5 1.2.4 0 2.9-.7.4-3.9-.4-.5-1.2-1.4-3.7-1.7v-2h-1.5v2c-4.6.5-5 3.5-5 4.8 0 4 4 4.8 5 5.1v5.5c-1.9-.5-2.3-2.4-2.5-3.1-.3-.9-1.1-1-1.4-1-1.2.1-1.5 1.1-1.5 1.5 0 .5.3 2.9 3.1 4.3.7.4 1.5.6 2.4.7v1.9H33v-1.9c1.1-.1 2.1-.4 2.9-.9 2.1-1.2 2.8-3.8 1.9-6.3zm-6.5-3.7c-1.2-.6-2.1-.8-2.1-2.3 0-.7.2-1.8 2.1-2.2v4.5zm1.5 8.7v-5.2c2.4.8 2.5 1.8 2.5 2.5s-.1 2.2-2.5 2.7z" class="st5"/><path d="M10.1 34.1c0-13.3 10.7-24 24-24 6.1 0 11.7 2.3 15.9 6-4.4-5-10.8-8.1-18-8.1C18.7 8 8 18.7 8 32c0 7.2 3.1 13.6 8.1 18-3.8-4.3-6-9.8-6-15.9z" style="opacity:.2;fill:#fff"/><path d="M47.9 14c3.8 4.2 6 9.8 6 15.9 0 13.3-10.7 24-24 24-6.1 0-11.7-2.3-15.9-6 4.4 5 10.8 8.1 18 8.1 13.3 0 24-10.7 24-24 0-7.2-3.1-13.6-8.1-18z" class="st5"/><g style="opacity:.3"><path d="M45.9 12.5 12.5 45.9c-.3-.5-.7-1-1-1.5l33-33c.5.4.9.7 1.4 1.1zM52.5 19.6l-33 33c-1.6-1-3-2.1-4.4-3.4L49 15.3c1.4 1.2 2.6 2.7 3.5 4.3z" class="st3"/></g><path d="M37.8 33.6c-.2-.6-1-2.5-5-3.3v-4.9c1 .3 1.6 1 1.9 2 .2.8.7 1.2 1.5 1.2.4 0 2.9-.7.4-3.9-.4-.5-1.2-1.4-3.7-1.7v-2h-1.5v2c-4.6.5-5 3.5-5 4.8 0 4 4 4.8 5 5.1v5.5c-1.9-.5-2.3-2.4-2.5-3.1-.3-.9-1.1-1-1.4-1-1.2.1-1.5 1.1-1.5 1.5 0 .5.3 2.9 3.1 4.3.7.4 1.5.6 2.4.7v1.9H33v-1.9c1.1-.1 2.1-.4 2.9-.9 2.1-1.2 2.8-3.8 1.9-6.3zm-6.5-3.7c-1.2-.6-2.1-.8-2.1-2.3 0-.7.2-1.8 2.1-2.2v4.5zm1.5 8.7v-5.2c2.4.8 2.5 1.8 2.5 2.5s-.1 2.2-2.5 2.7z" style="fill:#f7a90b"/><path d="m40.3 22.5-4-1.3 4-1.4 1.4-4.1 1.3 4.1 4.1 1.4-4.1 1.3-1.3 4.1zM46.3 27.4l-2.3-.8 2.3-.8.8-2.3.8 2.3 2.3.8-2.3.8-.8 2.3z" class="st3"/></svg>