<svg xmlns="http://www.w3.org/2000/svg" xml:space="preserve" id="Layer_1" style="enable-background:new 0 0 64 64" version="1.1" viewBox="0 0 64 64"><style>.st3{fill:#fff}.st5{opacity:.1;fill:#231f20}.st17{fill:#facc20}.st18{fill:#fdef34}.st19{fill:#f7a90b}.st24{fill:#cacbce}.st49{opacity:.2;fill:#fff}.st50{opacity:.3}</style><circle cx="32" cy="32" r="32" style="fill:#62bee7"/><path d="M54.3 43c-.6-1.4-2.2-2-3.6-1.6L39 45v-.3c0-1.3-1-2.4-2.2-2.5l-23.6-2.3V50l15.5 5.5c.8.3 1.7.5 2.6.5 1.1 0 2.2-.2 3.3-.7l18.3-8.2c1.5-.7 2.1-2.5 1.4-4.1z" class="st3"/><path d="M39 44.7v.6c-.1.2-.1.4-.2.6-.1.1-.1.2-.2.4-.1.1-.2.2-.3.4-.1.1-.3.2-.4.3-.1.1-.3.2-.5.3-.2.1-.4.1-.5.2h-.6c-.8 0-1.6-.1-2.4-.1-.8-.1-1.6-.1-2.4-.2-.8-.1-1.5-.1-2.1-.2-1.2-.1-2-.2-2-.2h2c.6 0 1.3 0 2.1.1.8 0 1.6.1 2.4.1.8.1 1.6.1 2.4.2h.5c.2 0 .3-.1.5-.1.1-.1.3-.1.4-.2.1-.1.3-.2.4-.3l.3-.3c.1-.1.1-.2.2-.3l.3-.6c.1-.5.1-.7.1-.7z" class="st24"/><circle cx="34.4" cy="30.2" r="9.7" class="st17"/><circle cx="34.4" cy="30.2" r="6.5" class="st18"/><path d="M25.6 31c0-5.3 4.3-9.7 9.7-9.7 2.5 0 4.7.9 6.4 2.4-1.8-2-4.4-3.3-7.2-3.3-5.3 0-9.7 4.3-9.7 9.7 0 2.9 1.3 5.5 3.3 7.2-1.6-1.6-2.5-3.8-2.5-6.3z" class="st49"/><path d="M40.8 23c1.5 1.7 2.4 3.9 2.4 6.4 0 5.3-4.3 9.7-9.7 9.7-2.5 0-4.7-.9-6.4-2.4 1.8 2 4.4 3.3 7.2 3.3 5.3 0 9.7-4.3 9.7-9.7.1-3-1.2-5.6-3.2-7.3z" class="st5"/><g class="st50"><path d="M40 22.3 26.5 35.8c-.1-.2-.3-.4-.4-.6l13.3-13.3c.2.2.4.3.6.4zM42.7 25.2 29.4 38.5c-.6-.4-1.2-.8-1.8-1.4l13.7-13.7c.5.6 1 1.1 1.4 1.8z" class="st3"/></g><path d="M37.2 31c-.1-.3-.5-1.2-2.4-1.6V27c.5.2.8.5.9.9.1.4.4.6.7.6.2 0 1.4-.3.2-1.9-.2-.3-.6-.7-1.8-.8V25h-.7v.9c-2.2.2-2.4 1.7-2.4 2.3 0 1.9 1.9 2.3 2.4 2.4v2.6c-.9-.2-1.1-1.2-1.2-1.5-.2-.4-.5-.5-.7-.5-.6 0-.7.5-.7.7 0 .2.1 1.4 1.5 2.1.3.2.7.3 1.2.3v.9h.7v-.9c.5 0 1-.2 1.4-.4 1-.5 1.3-1.7.9-2.9zm-3.1-1.8c-.6-.3-1-.4-1-1.1 0-.3.1-.8 1-1.1v2.2zm.7 4.2v-2.5c1.2.4 1.2.9 1.2 1.2 0 .3-.1 1-1.2 1.3z" class="st19"/><circle cx="47.4" cy="14.5" r="6.5" class="st17"/><circle cx="47.4" cy="14.5" r="4.4" class="st18"/><path d="M41.4 15.1c0-3.6 2.9-6.5 6.5-6.5 1.7 0 3.2.6 4.3 1.6C51.1 8.9 49.4 8 47.4 8c-3.6 0-6.5 2.9-6.5 6.5 0 1.9.9 3.7 2.2 4.9-1-1.1-1.7-2.6-1.7-4.3z" class="st49"/><path d="M51.7 9.6c1 1.2 1.6 2.7 1.6 4.3 0 3.6-2.9 6.5-6.5 6.5-1.7 0-3.2-.6-4.3-1.6 1.2 1.4 2.9 2.2 4.9 2.2 3.6 0 6.5-2.9 6.5-6.5 0-1.9-.8-3.7-2.2-4.9z" class="st5"/><g class="st50"><path d="m51.2 9.2-9.1 9.1c-.1-.1-.2-.3-.3-.4l9-9c.1.1.3.2.4.3zM53 11.1l-9 9-1.2-.9L52 10c.4.3.7.7 1 1.1z" class="st3"/></g><path d="M49.3 15.1c-.1-.2-.3-.8-1.6-1.1v-1.6c.3.1.5.3.6.6.1.3.2.4.5.4.1 0 .9-.2.1-1.3-.1-.2-.4-.5-1.2-.5V11h-.5v.6c-1.5.2-1.6 1.1-1.6 1.6 0 1.3 1.3 1.5 1.6 1.6v1.8c-.6-.1-.8-.8-.8-1-.1-.3-.3-.3-.5-.3-.4 0-.5.4-.5.5 0 .2.1.9 1 1.4.2.1.5.2.8.2v.6h.5v-.6c.4 0 .7-.1.9-.3.7-.4 1-1.2.7-2zm-2.1-1.2c-.4-.2-.7-.2-.7-.7 0-.2.1-.6.7-.7v1.4zm.5 2.8V15c.8.3.8.6.8.8 0 .2-.1.7-.8.9z" class="st19"/><circle cx="21.1" cy="16.7" r="7.5" class="st17"/><circle cx="21.1" cy="16.7" r="5" class="st18"/><path d="M14.3 17.3c0-4.1 3.3-7.5 7.5-7.5 1.9 0 3.6.7 4.9 1.9-1.4-1.5-3.4-2.5-5.6-2.5-4.1 0-7.5 3.3-7.5 7.5 0 2.2 1 4.2 2.5 5.6-1.1-1.4-1.8-3.1-1.8-5z" class="st49"/><path d="M26 11.1c1.2 1.3 1.9 3 1.9 4.9 0 4.1-3.3 7.5-7.5 7.5-1.9 0-3.6-.7-4.9-1.9 1.4 1.5 3.4 2.5 5.6 2.5 4.1 0 7.5-3.3 7.5-7.5 0-2.2-1-4.1-2.6-5.5z" class="st5"/><g class="st50"><path d="M25.4 10.6 15 21c-.1-.2-.2-.3-.3-.5L25 10.3c.1.1.3.2.4.3zM27.5 12.8 17.2 23.1c-.5-.3-.9-.7-1.4-1.1l10.5-10.5c.5.4.9.8 1.2 1.3z" class="st3"/></g><path d="M23.3 17.3c-.1-.2-.4-.9-1.9-1.2v-1.8c.4.1.6.4.7.7.1.3.3.5.6.5.2 0 1.1-.3.1-1.4-.2-.2-.4-.5-1.4-.6v-.7h-.6v.7c-1.7.2-1.9 1.3-1.9 1.8 0 1.5 1.5 1.8 1.9 1.9v2c-.7-.2-.9-.9-.9-1.1-.1-.3-.4-.4-.5-.4-.4 0-.6.4-.6.6 0 .2.1 1.1 1.1 1.6.3.1.6.2.9.2v.7h.6V20c.4 0 .8-.1 1.1-.3.8-.5 1.1-1.5.8-2.4zm-2.5-1.4c-.4-.2-.8-.3-.8-.8 0-.2.1-.7.8-.8v1.6zm.6 3.2v-1.9c.9.3.9.7.9.9 0 .3 0 .8-.9 1z" class="st19"/><path d="M9.4 36.4h4.7V54H9.4z" style="fill:#2e3545"/><path d="m36.3 43.1-2-.2L34 46l2 .2c.9.1 1.7-.5 1.8-1.4.1-.8-.6-1.6-1.5-1.7z" style="fill:#f3eee4"/><path d="M14.1 37.9h2.5v14.6h-2.5z" class="st24"/><circle cx="11.7" cy="51.8" r="1" class="st3"/></svg>