<svg xmlns="http://www.w3.org/2000/svg" xml:space="preserve" id="Layer_1" style="enable-background:new 0 0 64 64" version="1.1" viewBox="0 0 64 64"><style>.st3{fill:#fff}.st17{fill:#facc20}.st18{fill:#fdef34}.st19{fill:#f7a90b}.st72{opacity:.6}</style><circle cx="32" cy="32" r="32" style="fill:#62bee7"/><path d="M32.6 51.1v1.8H10.2v-6h17.2c1.4 1.7 3.2 3.1 5.2 4.2zM24.3 40.9h-14v-6h13.5c0 .5-.1 1-.1 1.5 0 1.6.2 3.1.6 4.5zM30.6 23.1c-2.2 1.5-4 3.6-5.2 6H10.2v-6h20.4zM10.2 11.1h22.4v6H10.2z" class="st17"/><path d="M27.4 46.9H13.2v-6h11c.7 2.2 1.8 4.3 3.2 6zM25.4 29c-.9 1.8-1.5 3.8-1.7 6H13.2v-6h12.2zM35.6 17.1v3.6c-1.8.5-3.5 1.3-5 2.4H13.2v-6h22.4z" class="st18"/><circle cx="40" cy="36.5" r="16.4" class="st17"/><circle cx="40" cy="36.5" r="11.9" class="st18"/><path d="M44.4 37.7c-.2-.5-.7-1.9-3.8-2.5v-3.7c.7.2 1.2.7 1.4 1.5.2.6.6.9 1.1.9.3 0 2.2-.5.3-2.9-.3-.4-.9-1.1-2.8-1.3v-1.5h-1.1v1.5c-3.5.4-3.8 2.6-3.8 3.7 0 3.1 3 3.6 3.8 3.8v4.1c-1.5-.3-1.8-1.8-1.9-2.3-.2-.7-.8-.7-1.1-.7-.9 0-1.2.8-1.2 1.1 0 .4.2 2.2 2.3 3.3.5.3 1.1.4 1.8.5v1.4h1.1v-1.4c.8-.1 1.6-.3 2.2-.7 1.9-1 2.4-3 1.7-4.8zm-4.9-2.8c-.9-.4-1.6-.6-1.6-1.7 0-.5.2-1.3 1.6-1.7v3.4zm1.2 6.6v-3.9c1.8.6 1.9 1.4 1.9 1.9-.1.5-.2 1.5-1.9 2z" style="fill:#c64444"/><path d="M39.2 21.6h1.6V23h-1.6zM39.2 49.9h1.6v1.4h-1.6z" class="st19"/><path d="M39.2 21.6h1.6V23h-1.6zM39.2 49.9h1.6v1.4h-1.6zM34.215 22.82l1.503-.547.48 1.315-1.504.548zM43.924 49.408l1.503-.547.479 1.316-1.504.547zM29.902 25.56l1.226-1.028.9 1.072-1.226 1.028zM48.046 47.297l1.225-1.029.9 1.073-1.226 1.028zM26.796 29.747l.8-1.385 1.212.7-.8 1.385zM51.257 43.853l.8-1.385 1.212.7-.8 1.386zM25.279 34.7l.277-1.575 1.38.243-.279 1.576zM53.121 39.553l.278-1.576 1.379.244-.278 1.575zM25.266 38.24l1.379-.244.278 1.576-1.38.243zM53.167 33.33l1.379-.242.277 1.576-1.378.243zM26.776 43.163l1.212-.7.8 1.386-1.212.7zM51.292 29.051l1.212-.7.8 1.386-1.212.7zM29.924 47.293l.9-1.073 1.225 1.029-.9 1.072zM48.02 25.664l.9-1.072 1.225 1.028-.9 1.073zM34.168 50.129l.479-1.316 1.503.547-.479 1.316zM43.912 23.556l.479-1.316 1.503.548-.478 1.315z" class="st19"/><g style="opacity:.5"><g class="st72"><path d="M14.7 11.1h.6v41.7h-.6zM15.7 11.1h1v41.7h-1z" class="st3"/></g><g class="st72"><path d="M20.3 11.1h2.3v41.7h-2.3z" class="st3"/></g></g><g style="opacity:.3"><path d="M51.7 24.9 28.5 48.1c-1.2-1.2-2.3-2.7-3.1-4.2l22-22c1.6.7 3 1.8 4.3 3zM56.4 36.5c0 .8-.1 1.7-.2 2.5L42.5 52.7c-.8.1-1.6.2-2.5.2-3.5 0-6.7-1.1-9.3-2.9l22.8-22.8c1.9 2.6 2.9 5.8 2.9 9.3z" class="st3"/></g></svg>