<svg xmlns="http://www.w3.org/2000/svg" xml:space="preserve" viewBox="0 0 64 64"><circle cx="32" cy="32" r="32" fill="#E0995E"/><path fill="#231F20" d="M45.5 33.167h-5v-7.334c0-4.687-3.813-8.5-8.5-8.5s-8.5 3.813-8.5 8.5v7.334h-5v-7.334c0-7.444 6.056-13.5 13.5-13.5s13.5 6.056 13.5 13.5v7.334z" opacity=".2"/><path fill="#4F5D73" d="M45.5 31.167h-5v-7.334c0-4.687-3.813-8.5-8.5-8.5s-8.5 3.813-8.5 8.5v7.334h-5v-7.334c0-7.444 6.056-13.5 13.5-13.5s13.5 6.056 13.5 13.5v7.334zM32 32a4 4 0 0 0-4 4c0 1.477.809 2.752 2 3.445V42a2 2 0 1 0 4 0v-2.555c1.191-.693 2-1.968 2-3.445a4 4 0 0 0-4-4z"/><path fill="#231F20" d="M47 27H17a3 3 0 0 0-3 3v19a3 3 0 0 0 3 3h30a3 3 0 0 0 3-3V30a3 3 0 0 0-3-3zM34 41.445V44a2 2 0 1 1-4 0v-2.555c-1.191-.693-2-1.968-2-3.445a4 4 0 0 1 8 0c0 1.477-.809 2.752-2 3.445z" opacity=".2"/><path fill="#FFF" d="M47 25H17a3 3 0 0 0-3 3v19a3 3 0 0 0 3 3h30a3 3 0 0 0 3-3V28a3 3 0 0 0-3-3zM34 39.445V42a2 2 0 1 1-4 0v-2.555c-1.191-.693-2-1.968-2-3.445a4 4 0 0 1 8 0c0 1.477-.809 2.752-2 3.445z"/></svg>